<mxfile host="app.diagrams.net" modified="2022-01-05T08:31:23.299Z" agent="5.0 (Windows NT 10.0; Win64; x64) AppleWebKit/537.36 (KHTML, like Gecko) Chrome/96.0.4664.110 Safari/537.36 Edg/96.0.1054.62" etag="BXq87lfq3uQbZPTXGMrZ" version="16.2.1" type="github">
  <diagram id="LDN4kRDbuYGVZ3FLL6nX" name="第 1 页">
    <mxGraphModel dx="1038" dy="617" grid="1" gridSize="10" guides="1" tooltips="1" connect="1" arrows="1" fold="1" page="1" pageScale="1" pageWidth="827" pageHeight="1169" math="0" shadow="0">
      <root>
        <mxCell id="0" />
        <mxCell id="1" parent="0" />
        <mxCell id="rr6FPmNwq4bUay-tGT4d-6" value="AbstractMap" style="rounded=0;whiteSpace=wrap;html=1;labelBackgroundColor=#FCFCFC;fontFamily=Verdana;" parent="1" vertex="1">
          <mxGeometry x="478" y="490" width="120" height="60" as="geometry" />
        </mxCell>
        <mxCell id="rr6FPmNwq4bUay-tGT4d-7" value="Map" style="rounded=0;whiteSpace=wrap;html=1;labelBackgroundColor=#FCFCFC;fontFamily=Verdana;" parent="1" vertex="1">
          <mxGeometry x="358" y="350" width="120" height="60" as="geometry" />
        </mxCell>
        <mxCell id="rr6FPmNwq4bUay-tGT4d-8" value="HashMap" style="rounded=0;whiteSpace=wrap;html=1;labelBackgroundColor=#FCFCFC;fontFamily=Verdana;" parent="1" vertex="1">
          <mxGeometry x="238" y="490" width="120" height="60" as="geometry" />
        </mxCell>
        <mxCell id="rr6FPmNwq4bUay-tGT4d-11" value="" style="endArrow=block;dashed=1;endFill=0;endSize=12;html=1;rounded=0;fontFamily=Verdana;entryX=0.25;entryY=1;entryDx=0;entryDy=0;exitX=0.5;exitY=0;exitDx=0;exitDy=0;" parent="1" source="rr6FPmNwq4bUay-tGT4d-8" target="rr6FPmNwq4bUay-tGT4d-7" edge="1">
          <mxGeometry width="160" relative="1" as="geometry">
            <mxPoint x="568" y="650" as="sourcePoint" />
            <mxPoint x="688" y="450" as="targetPoint" />
          </mxGeometry>
        </mxCell>
        <mxCell id="rr6FPmNwq4bUay-tGT4d-12" value="" style="endArrow=block;dashed=1;endFill=0;endSize=12;html=1;rounded=0;fontFamily=Verdana;entryX=0.75;entryY=1;entryDx=0;entryDy=0;exitX=0.5;exitY=0;exitDx=0;exitDy=0;" parent="1" source="rr6FPmNwq4bUay-tGT4d-6" target="rr6FPmNwq4bUay-tGT4d-7" edge="1">
          <mxGeometry width="160" relative="1" as="geometry">
            <mxPoint x="528" y="450" as="sourcePoint" />
            <mxPoint x="688" y="450" as="targetPoint" />
          </mxGeometry>
        </mxCell>
        <mxCell id="rr6FPmNwq4bUay-tGT4d-13" value="Extends" style="endArrow=block;endSize=16;endFill=0;html=1;rounded=0;fontFamily=Verdana;exitX=1;exitY=0.5;exitDx=0;exitDy=0;entryX=0;entryY=0.5;entryDx=0;entryDy=0;" parent="1" source="rr6FPmNwq4bUay-tGT4d-8" target="rr6FPmNwq4bUay-tGT4d-6" edge="1">
          <mxGeometry width="160" relative="1" as="geometry">
            <mxPoint x="528" y="450" as="sourcePoint" />
            <mxPoint x="688" y="450" as="targetPoint" />
          </mxGeometry>
        </mxCell>
        <mxCell id="rr6FPmNwq4bUay-tGT4d-15" value="顶层接口&lt;br&gt;内部接口类：&lt;font color=&quot;#ff4545&quot;&gt;interface Entry&amp;lt;K,V&amp;gt;&lt;/font&gt;" style="text;html=1;strokeColor=none;fillColor=none;align=center;verticalAlign=middle;whiteSpace=wrap;rounded=0;labelBackgroundColor=#FCFCFC;fontFamily=Verdana;" parent="1" vertex="1">
          <mxGeometry x="304" y="240" width="250" height="80" as="geometry" />
        </mxCell>
        <mxCell id="rr6FPmNwq4bUay-tGT4d-16" value="初步实现" style="text;html=1;strokeColor=none;fillColor=none;align=center;verticalAlign=middle;whiteSpace=wrap;rounded=0;labelBackgroundColor=#FCFCFC;fontFamily=Verdana;" parent="1" vertex="1">
          <mxGeometry x="644" y="505" width="60" height="30" as="geometry" />
        </mxCell>
        <mxCell id="rr6FPmNwq4bUay-tGT4d-17" value="具体实现" style="text;html=1;strokeColor=none;fillColor=none;align=center;verticalAlign=middle;whiteSpace=wrap;rounded=0;labelBackgroundColor=#FCFCFC;fontFamily=Verdana;" parent="1" vertex="1">
          <mxGeometry x="124" y="505" width="60" height="30" as="geometry" />
        </mxCell>
      </root>
    </mxGraphModel>
  </diagram>
</mxfile>
